<?xml version="1.0" standalone="no"?>
<!DOCTYPE svg PUBLIC "-//W3C//DTD SVG 20010904//EN"
 "http://www.w3.org/TR/2001/REC-SVG-20010904/DTD/svg10.dtd">
<svg version="1.0" xmlns="http://www.w3.org/2000/svg"
 width="1024.000000pt" height="1024.000000pt" viewBox="0 0 1024.000000 1024.000000"
 preserveAspectRatio="xMidYMid meet">
<metadata>
Created by potrace 1.14, written by Peter Selinger 2001-2017
</metadata>
<g transform="translate(0.000000,1024.000000) scale(0.100000,-0.100000)"
fill="#000000" stroke="none">
<path d="M1651 10225 c-178 -50 -303 -174 -354 -352 -23 -78 -15 -186 26 -363
65 -278 100 -516 122 -822 l6 -77 -35 14 c-20 9 -73 24 -118 35 -112 26 -299
22 -408 -10 -187 -54 -388 -185 -491 -321 -13 -17 -34 -43 -46 -58 -23 -29
-106 -184 -116 -216 -3 -11 -13 -45 -22 -75 -24 -83 -30 -134 -29 -255 3 -295
133 -509 499 -824 66 -56 308 -233 389 -284 58 -36 74 -51 69 -65 -63 -186
-244 -584 -340 -747 -56 -94 -78 -178 -78 -295 0 -84 5 -119 23 -172 30 -85
91 -180 156 -241 44 -41 194 -127 222 -127 5 0 8 -121 7 -297 -2 -345 0 -308
-16 -325 -46 -47 -144 -246 -181 -368 -45 -150 -56 -234 -51 -405 4 -161 26
-281 77 -415 59 -153 139 -286 248 -410 55 -63 59 -73 75 -184 16 -104 88
-399 114 -461 5 -11 24 -60 42 -110 71 -197 220 -482 348 -665 178 -257 398
-488 646 -680 95 -74 280 -200 294 -200 5 0 11 -4 13 -8 3 -9 40 -29 192 -108
263 -135 576 -239 866 -288 126 -21 149 -24 245 -33 162 -15 609 -7 690 13 11
2 36 7 55 9 67 7 125 16 140 21 8 3 26 8 40 10 106 20 374 98 447 130 17 8 34
14 38 14 18 0 251 109 350 163 191 104 393 242 540 368 57 49 298 289 335 334
148 178 282 373 372 540 50 94 148 298 153 320 1 6 7 22 13 36 48 118 135 417
149 512 2 20 8 50 12 65 l7 27 1003 1 c551 1 1031 4 1066 8 235 23 450 182
549 408 14 32 24 58 21 58 -2 0 2 15 10 34 22 52 27 219 9 307 -20 97 -90 239
-156 312 -106 120 -256 201 -410 224 -24 3 -204 6 -400 7 -197 0 -358 2 -358
3 0 2 98 101 218 221 120 119 231 235 247 257 17 22 32 42 35 45 4 3 22 28 41
55 18 28 37 52 40 55 3 3 14 21 24 40 10 19 21 37 24 40 12 10 80 147 109 220
30 76 64 192 77 265 20 109 11 314 -20 440 -29 121 -144 385 -190 436 -8 8
-15 19 -15 23 0 14 -135 189 -200 259 -93 100 -171 128 -276 98 -55 -15 -148
-105 -246 -236 -21 -28 -42 -55 -47 -62 -75 -89 -224 -406 -247 -526 -31 -164
-37 -331 -14 -446 15 -74 48 -192 60 -213 6 -10 10 -22 10 -28 0 -41 201 -385
267 -455 10 -11 28 -33 40 -48 l22 -29 -207 -207 -208 -207 -418 1 -419 0 -2
380 c-2 209 -6 407 -9 440 -7 70 -17 153 -22 177 -1 10 0 18 4 19 4 0 30 2 57
5 45 4 92 15 135 31 8 3 20 7 26 8 7 2 34 15 60 31 50 28 194 166 194 185 0 6
9 23 19 38 31 44 64 167 66 250 3 128 -32 227 -150 426 -25 42 -45 78 -45 80
0 3 -83 140 -163 270 -173 280 -518 748 -713 965 -17 19 -68 78 -114 130 -138
157 -558 572 -716 707 -12 10 -44 37 -70 59 -81 70 -90 77 -171 142 -149 119
-288 223 -430 322 -54 38 -103 74 -110 79 -7 6 -17 11 -23 11 -5 0 -10 5 -10
10 0 6 -5 10 -10 10 -6 0 -16 5 -23 11 -32 28 -324 209 -337 209 -6 0 -10 5
-10 10 0 6 -4 10 -8 10 -5 0 -64 32 -133 72 -151 87 -585 308 -605 308 -8 0
-14 5 -14 10 0 6 -5 10 -11 10 -6 0 -66 24 -133 54 -66 29 -265 110 -441 180
-176 70 -329 131 -340 135 -11 5 -159 64 -330 131 -170 67 -429 169 -575 227
-146 58 -294 116 -330 129 -85 32 -214 40 -289 19z"/>
</g>
</svg>
